# xmcd
#
# Track frame offsets:
#	150
#	12079
#	20997
#	29221
#	41963
#	52245
#	64792
#	78261
#	89518
#	103788
#	114804
#	126824
#	137696
#	149016
#	159681
#	172176
#
# Disc length: 2451 seconds
#
# Revision: 0
# Processed by: cddbd v1.4PL0 Copyright (c) Steve Scherf et al.
# Submitted via: EasyCDDAExtractor 4.6.0.1
#
DISCID=f0099110
DTITLE=Rocky Top - Rocky Top and Other Bluegrass Classics
DYEAR=1999
DGENRE=Bluegrass
TTITLE0=Rocky Top
TTITLE1=Sittin' On Top Of The World
TTITLE2=Foggy Mountain Breakdown
TTITLE3=I Wonder How The Old Folks Are At Home
TTITLE4=Cripple Creek
TTITLE5=Lonesome Road Blues
TTITLE6=Tragic Romance
TTITLE7=Cabin On the Hill
TTITLE8=Skyline Drive
TTITLE9=Mountain Fever
TTITLE10=I Wonder Where you Are Tonight
TTITLE11=Little Footprints In The Snow
TTITLE12=I Can Hear Kentucky Calling Me
TTITLE13=I'm Going Back To Old Kentucky
TTITLE14=Paradise
TTITLE15=Kentucky Waltz
EXTD=
EXTT0=
EXTT1=
EXTT2=
EXTT3=
EXTT4=
EXTT5=
EXTT6=
EXTT7=
EXTT8=
EXTT9=
EXTT10=
EXTT11=
EXTT12=
EXTT13=
EXTT14=
EXTT15=
PLAYORDER=
